<svg width="23" height="23" viewBox="0 0 23 23" fill="none" xmlns="http://www.w3.org/2000/svg">
<g clip-path="url(#clip0_1_303)">
<path d="M14.4229 4.79168C15.359 4.9743 16.2192 5.43209 16.8936 6.10645C17.5679 6.78081 18.0257 7.64106 18.2083 8.57709M14.4229 0.958344C16.3676 1.17439 18.1811 2.04526 19.5656 3.42798C20.95 4.81069 21.8232 6.62306 22.0417 8.56751M21.0833 16.215V19.09C21.0844 19.3569 21.0298 19.6211 20.9228 19.8656C20.8159 20.1102 20.6591 20.3297 20.4624 20.5101C20.2657 20.6906 20.0336 20.8279 19.7807 20.9134C19.5279 20.9989 19.26 21.0307 18.9942 21.0067C16.0452 20.6862 13.2125 19.6786 10.7238 18.0646C8.40826 16.5932 6.44512 14.6301 4.97376 12.3146C3.35415 9.8145 2.34624 6.96805 2.03167 4.00584C2.00773 3.74083 2.03922 3.47374 2.12415 3.22157C2.20909 2.9694 2.3456 2.73767 2.52499 2.54115C2.70439 2.34462 2.92274 2.18761 3.16614 2.08009C3.40954 1.97258 3.67267 1.91693 3.93876 1.91668H6.81376C7.27884 1.9121 7.72972 2.07679 8.08236 2.38006C8.435 2.68333 8.66533 3.10448 8.73042 3.56501C8.85177 4.48507 9.07681 5.38846 9.40126 6.25793C9.53019 6.60094 9.5581 6.97372 9.48167 7.3321C9.40524 7.69049 9.22767 8.01945 8.97001 8.28001L7.75292 9.49709C9.11716 11.8963 11.1037 13.8829 13.5029 15.2471L14.72 14.03C14.9806 13.7723 15.3095 13.5948 15.6679 13.5183C16.0263 13.4419 16.3991 13.4698 16.7421 13.5988C17.6116 13.9232 18.5149 14.1482 19.435 14.2696C19.9005 14.3353 20.3257 14.5697 20.6296 14.9284C20.9335 15.2871 21.095 15.745 21.0833 16.215Z" stroke="white" stroke-width="2" stroke-linecap="round" stroke-linejoin="round"/>
</g>
<defs>
<clipPath id="clip0_1_303">
<rect width="23" height="23" fill="white"/>
</clipPath>
</defs>
</svg>
