<svg width="24" height="18" viewBox="0 0 24 18" fill="none" xmlns="http://www.w3.org/2000/svg">
<path d="M12.485 0.121035L20.243 2.06103C20.688 2.17103 21 2.57104 21 3.03104V4.00004H22C23.1 4.00004 24 4.90004 24 6.00004V9.00004C24 10.657 22.657 12 21 12H20.579C20.044 13.35 19.027 14.486 17.683 15.158L12.894 17.553C12.331 17.834 11.669 17.834 11.106 17.553L6.316 15.158C4.974 14.486 3.957 13.35 3.422 12H3C1.343 12 0 10.657 0 9.00004V6.00004C0 4.89504 0.895 4.00004 2 4.00004H3V3.03004C3 2.57204 3.312 2.17203 3.757 2.06003L11.515 0.121035C11.833 0.0410352 12.167 0.0410352 12.485 0.121035ZM12 2.06103L5 3.81103V9.79104C5 11.307 5.856 12.691 7.211 13.37L12 15.764L16.789 13.37C18.144 12.692 19 11.307 19 9.79204V3.81203L12 2.06203V2.06103ZM3 6.00004H2V9.00004C2 9.55204 2.448 10 3 10V6.00004ZM22 6.00004H21V10C21.552 10 22 9.55204 22 9.00004V6.00004Z" fill="black"/>
</svg>
